<?xml version="1.0" encoding="UTF-8" standalone="no"?>
<!-- Created with Inkscape (http://www.inkscape.org/) -->

<svg
   xmlns:dc="http://purl.org/dc/elements/1.1/"
   xmlns:cc="http://creativecommons.org/ns#"
   xmlns:rdf="http://www.w3.org/1999/02/22-rdf-syntax-ns#"
   xmlns:svg="http://www.w3.org/2000/svg"
   xmlns="http://www.w3.org/2000/svg"
   xmlns:sodipodi="http://sodipodi.sourceforge.net/DTD/sodipodi-0.dtd"
   xmlns:inkscape="http://www.inkscape.org/namespaces/inkscape"
   width="484.84375"
   height="779.90625"
   id="svg2"
   version="1.1"
   inkscape:version="0.48.2 r9819"
   sodipodi:docname="huxley-level-2.svg">
  <defs
     id="defs4" />
  <sodipodi:namedview
     id="base"
     pagecolor="#ffffff"
     bordercolor="#666666"
     borderopacity="1.0"
     inkscape:pageopacity="0.0"
     inkscape:pageshadow="2"
     inkscape:zoom="2.8"
     inkscape:cx="24.655615"
     inkscape:cy="776.09538"
     inkscape:document-units="px"
     inkscape:current-layer="layer1"
     showgrid="false"
     inkscape:object-nodes="true"
     inkscape:window-width="1436"
     inkscape:window-height="856"
     inkscape:window-x="4"
     inkscape:window-y="0"
     inkscape:window-maximized="1"
     showguides="true"
     inkscape:guide-bbox="true"
     fit-margin-top="1"
     fit-margin-left="1"
     fit-margin-right="1"
     fit-margin-bottom="1" />
  <metadata
     id="metadata7">
    <rdf:RDF>
      <cc:Work
         rdf:about="">
        <dc:format>image/svg+xml</dc:format>
        <dc:type
           rdf:resource="http://purl.org/dc/dcmitype/StillImage" />
        <dc:title />
      </cc:Work>
    </rdf:RDF>
  </metadata>
  <g
     inkscape:label="Layer 1"
     inkscape:groupmode="layer"
     id="layer1"
     transform="translate(-82.34375,-110.6875)">
    <path
       style="fill:#dfdfdf;fill-opacity:1;stroke:#000000;stroke-width:1;stroke-linecap:butt;stroke-linejoin:miter;stroke-miterlimit:4;stroke-opacity:1;stroke-dasharray:none"
       d="m 83.842659,112.41525 216.716121,0 0,17.86745 44.56622,-0.001 0,-18.09375 220.5625,0.21875 0,584.38226 -107.07825,0 0,-52.02289 -42.35925,-0.0156 -31.95009,-0.11064 0.0631,217.81413 -40.2193,0 0,26.63208 -260.29999,0.008 0,-246.53125 36.5625,0 0,-105.02174 -3.05463,-0.22155 0,-27.64129 -33.50787,0 z"
       id="path6548"
       inkscape:connector-curvature="0" />
    <path
       style="fill:#c1f0f6;fill-opacity:1;stroke:#000000;stroke-width:1;stroke-miterlimit:4;stroke-opacity:1;stroke-dasharray:none"
       d="m 0.5,0.71875 0,60.125 0,57.9375 79.1875,0 0,-57.9375 30.40625,0 0,-60.125 -109.59375,0 z"
       transform="translate(83.34375,111.6875)"
       id="225"
       inkscape:connector-curvature="0" />
    <path
       style="fill:#c1f0f6;fill-opacity:1;stroke:#000000;stroke-width:1;stroke-miterlimit:4;stroke-opacity:1;stroke-dasharray:none"
       d="m 83.84375,325.28125 0,37.4375 0,40.34375 0,23.25 59.5,0 c 0,0 2.61992,-10.33693 3.125,-14.125 0.47588,-3.56911 4.2126,-8.54291 4.65625,-9.125 l 11.90625,0 0,-40.34375 -10.65625,0 c -5.1054,-7.61788 -13.70389,-13.02694 -19.53125,-18.46875 -15.28189,-9.27032 -15.99414,-9.72039 -26.78125,-13.625 -0.72979,-0.32175 -9.184197,-3.31265 -22.21875,-5.34375 z"
       id="218"
       inkscape:connector-curvature="0"
       inkscape:label="#rect6373" />
    <path
       style="fill:#c1f0f6;fill-opacity:1;stroke:#000000;stroke-width:1;stroke-miterlimit:4;stroke-opacity:1;stroke-dasharray:none"
       d="m 83.84375,230.46875 0,57.34375 c 0,0 37.1288,2.63753 61.625,10.71875 10.7993,3.56266 15.30149,7.85585 17.0625,9.21875 l 0.5,-19.9375 0,-57.34375 z"
       id="220a"
       inkscape:connector-curvature="0"
       sodipodi:nodetypes="ccscccc"
       inkscape:label="#rect6375" />
    <path
       style="fill:#c1f0f6;fill-opacity:1;stroke:#000000;stroke-width:1;stroke-miterlimit:4;stroke-opacity:1;stroke-dasharray:none"
       d="m 83.84375,287.8125 0,37.46875 c 0,0 25.09821,6.375 32.6875,9.5 7.58928,3.125 16.3125,9.46875 16.3125,9.46875 L 148.5,326.0625 l 14.53125,11.625 0,-12.40625 0,-7.25 -0.50508,-10.26824 C 138.48524,291.05478 111.17284,289.39524 83.84375,287.8125 z"
       id="220"
       inkscape:connector-curvature="0"
       sodipodi:nodetypes="ccsccccccc"
       inkscape:label="#rect6381" />
    <rect
       y="112.41525"
       x="193.44421"
       height="60.104076"
       width="38.800568"
       id="226"
       style="fill:#c1f0f6;fill-opacity:1;stroke:#000000;stroke-width:1;stroke-miterlimit:4;stroke-opacity:1;stroke-dasharray:none"
       inkscape:label="#rect6390" />
    <rect
       style="fill:#c1f0f6;fill-opacity:1;stroke:#000000;stroke-width:1;stroke-miterlimit:4;stroke-opacity:1;stroke-dasharray:none"
       id="228"
       width="68.314003"
       height="60.104076"
       x="232.24478"
       y="112.41525"
       inkscape:label="#rect6392" />
    <path
       style="fill:#c1f0f6;fill-opacity:1;stroke:#000000;stroke-width:1;stroke-miterlimit:4;stroke-opacity:1;stroke-dasharray:none"
       d="m 345.125,112.1875 0,18.09375 12.59375,0 0,42.25 49.25,0 0,-60.125 -49.25,0 0,-0.21875 -12.59375,0 z"
       id="rect6396"
       inkscape:connector-curvature="0" />
    <rect
       style="fill:#c1f0f6;fill-opacity:1;stroke:#000000;stroke-width:1;stroke-miterlimit:4;stroke-opacity:1;stroke-dasharray:none"
       id="rect6398"
       width="57.17141"
       height="27.950539"
       x="300.55878"
       y="130.2827" />
    <path
       style="fill:#c1f0f6;fill-opacity:1;stroke:#000000;stroke-width:1;stroke-miterlimit:4;stroke-opacity:1;stroke-dasharray:none"
       d="m 406.96875,112.40625 0,38 16.15625,0 0,22.09375 10.75,0 0,19.21875 -19.71875,0 0,18.6875 19.71875,0 41.5,0 0,-17.6875 0,-20.21875 0,-40.21875 -28.34375,0 0,-19.875 -23.90625,0 -16.15625,0 z"
       id="201"
       inkscape:connector-curvature="0"
       inkscape:label="#rect6406" />
    <rect
       y="112.40625"
       x="447.01749"
       height="19.874599"
       width="28.347927"
       id="rect6410"
       style="fill:#c1f0f6;fill-opacity:1;stroke:#000000;stroke-width:1;stroke-miterlimit:4;stroke-opacity:1;stroke-dasharray:none" />
    <rect
       style="fill:#c1f0f6;fill-opacity:1;stroke:#000000;stroke-width:1;stroke-miterlimit:4;stroke-opacity:1;stroke-dasharray:none"
       id="rect6412"
       width="36.474869"
       height="52.311298"
       x="475.36542"
       y="112.40625" />
    <rect
       style="fill:#c1f0f6;fill-opacity:1;stroke:#000000;stroke-width:1;stroke-miterlimit:4;stroke-opacity:1;stroke-dasharray:none"
       id="rect6418"
       width="20.619478"
       height="45.682499"
       x="475.36542"
       y="164.71754" />
    <path
       style="fill:#c1f0f6;fill-opacity:1;stroke:#000000;stroke-width:1;stroke-miterlimit:4;stroke-opacity:1;stroke-dasharray:none"
       d="m 511.84375,112.40625 0,52.3125 -15.84375,0 0,187.59375 15.84375,0 53.84375,0 0,-239.90625 -53.84375,0 z"
       id="202"
       inkscape:connector-curvature="0"
       inkscape:label="#rect6424" />
    <rect
       style="fill:#c1f0f6;fill-opacity:1;stroke:#000000;stroke-width:1;stroke-miterlimit:4;stroke-opacity:1;stroke-dasharray:none"
       id="206"
       width="69.687485"
       height="200.02417"
       x="496"
       y="352.3125"
       inkscape:label="#rect6431" />
    <path
       style="fill:#c1f0f6;fill-opacity:1;stroke:#000000;stroke-width:1;stroke-miterlimit:4;stroke-opacity:1;stroke-dasharray:none"
       d="m 478.3125,552.34375 0,18.09375 -62.0625,0 0,74.3125 62.0625,0 0,0.0312 87.375,0 0,-92.4375 -87.375,0 z"
       id="rect6433"
       inkscape:connector-curvature="0" />
    <rect
       style="fill:#c1f0f6;fill-opacity:1;stroke:#000000;stroke-width:1;stroke-miterlimit:4;stroke-opacity:1;stroke-dasharray:none"
       id="rect6435"
       width="49.499554"
       height="52.022865"
       x="516.18793"
       y="644.76562" />
    <rect
       style="fill:#c1f0f6;fill-opacity:1;stroke:#000000;stroke-width:1;stroke-miterlimit:4;stroke-opacity:1;stroke-dasharray:none"
       id="rect6437"
       width="57.578674"
       height="52.022915"
       x="458.60925"
       y="644.76562" />
    <path
       style="fill:#c1f0f6;fill-opacity:1;stroke:#000000;stroke-width:1;stroke-miterlimit:4;stroke-opacity:1;stroke-dasharray:none"
       d="m 83.84375,426.3125 0,23.09375 0,15.84375 0,44.4375 54.65625,0 c 0,0 6.64223,-21.12054 15.78125,-33.03125 l 8.75,-11.40625 0,-15.84375 -11.90625,0 c -0.44914,-0.58922 -4.1526,-5.51986 -4.625,-9.0625 -0.50207,-3.76498 -3.125,-14.03125 -3.125,-14.03125 l -59.53125,0 z"
       id="217"
       inkscape:connector-curvature="0"
       inkscape:label="#rect6439" />
    <rect
       style="fill:#c1f0f6;fill-opacity:1;stroke:#000000;stroke-width:1;stroke-miterlimit:4;stroke-opacity:1;stroke-dasharray:none"
       id="224"
       width="31.314728"
       height="43.436558"
       x="183.34268"
       y="189.69191"
       inkscape:label="#rect6441" />
    <rect
       style="fill:#c1f0f6;fill-opacity:1;stroke:#000000;stroke-width:1;stroke-miterlimit:4;stroke-opacity:1;stroke-dasharray:none"
       id="227"
       width="57.073624"
       height="43.43655"
       x="214.65741"
       y="189.69191"
       inkscape:label="#rect6443" />
    <path
       style="fill:#c1f0f6;fill-opacity:1;stroke:#000000;stroke-width:1;stroke-miterlimit:4;stroke-opacity:1;stroke-dasharray:none"
       d="m 271.71875,189.6875 0,43.4375 -88.375,0 0,146.96875 187.375,0 0,-146.96875 0,-3.03125 25.25,0 0,-40.40625 -25.25,0 -99,0 z"
       id="221"
       inkscape:connector-curvature="0"
       inkscape:label="#rect6445" />
    <path
       style="fill:#c1f0f6;fill-opacity:1;stroke:#000000;stroke-width:1;stroke-miterlimit:4;stroke-opacity:1;stroke-dasharray:none"
       d="m 395.96875,210.40625 0,19.6875 -25.25,0 0,150 -155.5625,0 -22.96875,0.25 c 0.0822,19.6143 3.28663,40.97124 6.0625,55.5625 6.39803,19.85394 4.86315,22.74221 16.90625,43.1875 L 200,509.15625 l 15.15625,0.75 233.84375,0 0,20.71875 29.3125,0 0,21.71875 17.6875,0 0,-42.4375 0,-129.8125 0,-150 0,-19.6875 z"
       id="219"
       inkscape:connector-curvature="0"
       sodipodi:nodetypes="cccccccccccccccccccc"
       inkscape:label="#rect6451" />
    <rect
       style="fill:#c1f0f6;fill-opacity:1;stroke:#000000;stroke-width:1;stroke-miterlimit:4;stroke-opacity:1;stroke-dasharray:none"
       id="209"
       width="29.294403"
       height="39.80344"
       x="449.01282"
       y="530.61841"
       inkscape:label="#rect6463" />
    <rect
       style="fill:#c1f0f6;fill-opacity:1;stroke:#000000;stroke-width:1;stroke-miterlimit:4;stroke-opacity:1;stroke-dasharray:none"
       id="233"
       width="30.30459"
       height="60.51162"
       x="418.70822"
       y="509.91028"
       inkscape:label="#rect6465" />
    <rect
       y="509.91028"
       x="285.09497"
       height="60.51162"
       width="133.61324"
       id="rect6473"
       style="fill:#c1f0f6;fill-opacity:1;stroke:#000000;stroke-width:1;stroke-miterlimit:4;stroke-opacity:1;stroke-dasharray:none" />
    <rect
       style="fill:#c1f0f6;fill-opacity:1;stroke:#000000;stroke-width:1;stroke-miterlimit:4;stroke-opacity:1;stroke-dasharray:none"
       id="rect6475"
       width="56.22575"
       height="60.51162"
       x="228.86923"
       y="509.91028" />
    <rect
       y="509.67792"
       x="175.94669"
       height="27.641279"
       width="53.154911"
       id="rect6477"
       style="fill:#c1f0f6;fill-opacity:1;stroke:#000000;stroke-width:1;stroke-miterlimit:4;stroke-opacity:1;stroke-dasharray:none" />
    <rect
       style="fill:#c1f0f6;fill-opacity:1;stroke:#000000;stroke-width:1;stroke-miterlimit:4;stroke-opacity:1;stroke-dasharray:none"
       id="rect6479"
       width="25.184061"
       height="27.641279"
       x="117.35162"
       y="509.67792" />
    <path
       style="fill:#c1f0f6;fill-opacity:1;stroke:#000000;stroke-width:1;stroke-miterlimit:4;stroke-opacity:1;stroke-dasharray:none"
       d="m 83.84375,642.5625 0,75.15625 36.5625,0 15.46875,0 0,-42.125 -15.46875,0 0,-33.03125 -36.5625,0 z"
       id="rect6489"
       inkscape:connector-curvature="0" />
    <path
       style="fill:#c1f0f6;fill-opacity:1;stroke:#000000;stroke-width:1;stroke-miterlimit:4;stroke-opacity:1;stroke-dasharray:none"
       d="m 135.875,707.90625 0,9.8125 -52.03125,0 0,171.375 72.6875,0 29.34375,0 0,-26.625 -29.34375,0 0,-144.75 0,-9.8125 -20.65625,0 z"
       id="215"
       inkscape:connector-curvature="0"
       inkscape:label="#rect6491" />
    <rect
       style="fill:#c1f0f6;fill-opacity:1;stroke:#000000;stroke-width:1;stroke-miterlimit:4;stroke-opacity:1;stroke-dasharray:none"
       id="rect6497"
       width="20.656311"
       height="32.301941"
       x="135.86551"
       y="675.59821" />
    <rect
       style="fill:#c1f0f6;fill-opacity:1;stroke:#000000;stroke-width:1;stroke-miterlimit:4;stroke-opacity:1;stroke-dasharray:none"
       id="clore"
       width="153.08994"
       height="222.73862"
       x="156.52182"
       y="639.71484"
       inkscape:label="#rect6501" />
    <rect
       style="fill:#c1f0f6;fill-opacity:1;stroke:#000000;stroke-width:1;stroke-miterlimit:4;stroke-opacity:1;stroke-dasharray:none"
       id="rect6503"
       width="74.675827"
       height="26.63208"
       x="185.86807"
       y="862.45349" />
    <rect
       y="862.45349"
       x="260.54388"
       height="26.63208"
       width="83.599838"
       id="rect6505"
       style="fill:#c1f0f6;fill-opacity:1;stroke:#000000;stroke-width:1;stroke-miterlimit:4;stroke-opacity:1;stroke-dasharray:none" />
    <rect
       style="fill:#c1f0f6;fill-opacity:1;stroke:#000000;stroke-width:1;stroke-miterlimit:4;stroke-opacity:1;stroke-dasharray:none"
       id="214"
       width="74.751282"
       height="85.862953"
       x="309.61176"
       y="776.59052"
       inkscape:label="#rect6507" />
    <rect
       style="fill:#c1f0f6;fill-opacity:1;stroke:#000000;stroke-width:1;stroke-miterlimit:4;stroke-opacity:1;stroke-dasharray:none"
       id="rect6509"
       width="19.646151"
       height="22.72846"
       x="136.87567"
       y="639.71484" />
    <rect
       y="747.90662"
       x="309.61176"
       height="28.683916"
       width="74.751282"
       id="212b"
       style="fill:#c1f0f6;fill-opacity:1;stroke:#000000;stroke-width:1;stroke-miterlimit:4;stroke-opacity:1;stroke-dasharray:none"
       inkscape:label="#rect6511" />
    <rect
       style="fill:#c1f0f6;fill-opacity:1;stroke:#000000;stroke-width:1;stroke-miterlimit:4;stroke-opacity:1;stroke-dasharray:none"
       id="212"
       width="74.751282"
       height="126.72987"
       x="309.61176"
       y="621.17682"
       inkscape:label="#rect6513" />
    <path
       style="fill:#c1f0f6;fill-opacity:1;stroke:#000000;stroke-width:1;stroke-linecap:butt;stroke-linejoin:miter;stroke-miterlimit:4;stroke-opacity:1;stroke-dasharray:none"
       d="m 163.03125,362.71875 0,-25.03949 -14.53883,-11.61675 -15.64867,18.18749 c 0,0 6.45615,4.92672 9.9169,8.28831 4.11833,4.00035 9.61435,10.18044 9.61435,10.18044 z"
       id="223"
       inkscape:connector-curvature="0"
       sodipodi:nodetypes="ccccscc"
       inkscape:label="#path6531" />
  </g>
</svg>
